<svg xmlns="http://www.w3.org/2000/svg" xmlns:xlink="http://www.w3.org/1999/xlink" width="203" height="200" version="1.1" viewBox="0 0 203 200"><title>Artwork</title><desc>Created with Sketch.</desc><defs><circle id="path-1" cx="99.5" cy="99.5" r="99.5"/><linearGradient id="linearGradient-3" x1="50%" x2="50%" y1="100%" y2="0%"><stop offset="0%" stop-color="#52C142"/><stop offset="100%" stop-color="#AAF2A2"/></linearGradient><linearGradient id="linearGradient-4" x1="50%" x2="26.098%" y1="24.343%" y2="123.378%"><stop offset="0%" stop-color="#FFF"/><stop offset="100%" stop-color="#CEF1FF"/></linearGradient></defs><g id="Empty-States" fill="none" fill-rule="evenodd" stroke="none" stroke-width="1"><g id="1.4_No-Messages" transform="translate(-88.000000, -172.000000)"><g id="Artwork" transform="translate(88.000000, 146.000000)"><g id="scenery" transform="translate(0.000000, 27.000000)"><mask id="mask-2" fill="#fff"><use xlink:href="#path-1"/></mask><use id="Mask" fill="#70A0AD" xlink:href="#path-1"/><path id="Combined-Shape" fill="url(#linearGradient-3)" d="M0.00471618804,71.4185884 C0.0855450679,66.1293694 1.20282912,61.0915308 3.16244938,56.4991915 C-4.14028444,51.9752035 -9.00452489,43.8893643 -9.00452489,34.6674208 C-9.00452489,20.4941948 2.48514498,9.00452489 16.658371,9.00452489 C30.1019324,9.00452489 41.1311343,19.3416267 42.2311123,32.5009658 C49.0232959,32.9428789 55.348779,35.0963682 60.780543,38.5344152 C66.9025823,34.6594578 74.1599194,32.4162896 81.9411765,32.4162896 C103.822648,32.4162896 121.561086,50.1547273 121.561086,72.0361991 C129.606704,72.0361991 137.092197,74.4343754 143.341732,78.5548929 C149.682677,65.1224967 163.350945,55.8280543 179.190045,55.8280543 C179.408548,55.8280543 179.626638,55.8298231 179.844301,55.8333471 C179.414584,53.4957284 179.190045,51.0863033 179.190045,48.6244344 C179.190045,26.7429626 196.928483,9.00452489 218.809955,9.00452489 C240.691427,9.00452489 258.429864,26.7429626 258.429864,48.6244344 C258.429864,60.9277629 252.82187,71.9212743 244.022624,79.1882259 L244.022624,228.714932 L-13.5067873,228.714932 L-13.5067873,66.6334842 C-8.92874218,68.2829614 -4.42490767,69.8779962 0.00471618804,71.4185884 Z" mask="url(#mask-2)"/><g id="Group" fill="url(#linearGradient-4)" mask="url(#mask-2)"><g id="Combined-Shape"><path d="M66.311894,48.4533462 L84.803329,48.4533462 L84.803329,16.5970451 C84.803329,15.2970835 85.42734,14.0761327 86.4809201,13.3146412 L102.530306,1.71469578 C103.946341,0.691234397 105.859089,0.691234397 107.275124,1.71469578 L123.32451,13.3146412 C124.37809,14.0761327 125.002101,15.2970835 125.002101,16.5970451 L125.002101,48.4533462 L143.493536,48.4533462 L143.493536,16.5970451 C143.493536,15.2970835 144.117547,14.0761327 145.171127,13.3146412 L161.220513,1.71469578 C162.636548,0.691234397 164.549296,0.691234397 165.965331,1.71469578 L182.014717,13.3146412 C183.068297,14.0761327 183.692308,15.2970835 183.692308,16.5970451 L183.692308,48.4533462 L210.404392,48.4533462 L210.404392,84.5254742 L183.692308,84.5254742 L183.692308,171.904566 L143.493536,171.904566 L143.493536,84.5254742 L125.002101,84.5254742 L125.002101,171.904566 L84.803329,171.904566 L84.803329,84.5254742 L66.311894,84.5254742 L66.311894,171.904566 L26.1131222,171.904566 L26.1131222,84.5254742 L0.205013736,84.5254742 L0.205013736,48.4533462 L26.1131222,48.4533462 L26.1131222,16.1830654 C26.1131222,15.1430961 26.6123309,14.1663355 27.455195,13.5571422 L44.3145809,1.37175662 C45.4474088,0.552987518 46.9776074,0.552987518 48.1104352,1.37175662 L64.9698211,13.5571422 C65.8126852,14.1663355 66.311894,15.1430961 66.311894,16.1830654 L66.311894,48.4533462 Z" transform="translate(-5.402715, 88.244344)"/></g></g><path id="Path-6" stroke="#5C738E" stroke-dasharray="7 7" stroke-width="3" d="M91.8145963,216.783686 C88.5321989,212.531459 83.6917983,208.991249 77.2933944,206.163059 C54.1390554,199.385313 13.4749312,199.990295 -1.79617058,160.378663 C-15.7919983,124.074957 35.8371404,89.1345626 50.2816774,104.43192 C60.5170744,115.271625 47.3976725,130.903969 29.1921168,129.147881 C8.70035896,127.171269 -3.41205744,108.845567 0.628386297,89.1345626 C8.64313633,50.0352003 70.2635096,24.1661225 72.8613375,22.3641037" mask="url(#mask-2)" transform="translate(43.818109, 119.573895) rotate(-94.000000) translate(-43.818109, -119.573895)"/></g><g id="rocket" transform="translate(124.000000, 0.000000)"><polygon id="Path-8-Copy" fill="#C4D5DF" points="17.54 87.297 17.54 67.933 55.232 48.989" transform="translate(36.386104, 68.142713) scale(-1, 1) rotate(-90.000000) translate(-36.386104, -68.142713)"/><polygon id="Path-8" fill="#D5DFE5" points="17.263 87.114 18.003 69.791 53.819 51.113"/><polygon id="Triangle" fill="#FFF" points="52.503 16.003 89.003 89.003 64.683 89.003 52.503 51.43 40.33 89.003 16.003 89.003" transform="translate(52.503259, 52.503259) rotate(45.000000) translate(-52.503259, -52.503259)"/></g></g></g></g></svg>